<?xml version="1.0" standalone="no"?>
<!DOCTYPE svg PUBLIC "-//W3C//DTD SVG 1.1//EN" "http://www.w3.org/Graphics/SVG/1.1/DTD/svg11.dtd" >
<svg xmlns="http://www.w3.org/2000/svg">
<metadata>
<json>
{
	"fontFamily": "ua-brand-symbols",
	"majorVersion": 1,
	"minorVersion": 3,
	"version": "Version 1.3",
	"fontId": "ua-brand-symbols",
	"psName": "ua-brand-symbols",
	"subFamily": "Regular",
	"fullName": "ua-brand-symbols",
	"description": "Font generated by IcoMoon."
}
</json>
</metadata>
<defs>
<font id="ua-brand-symbols" horiz-adv-x="512">
<font-face units-per-em="512" ascent="480" descent="-32" />
<missing-glyph horiz-adv-x="512" />
<glyph unicode="&#x20;" d="" horiz-adv-x="256" />
<glyph unicode="&#xe600;" d="M387.158 396.709v-101.676c0-44.389-9.485-67.531-29.213-86.88-20.108-20.108-46.665-30.731-83.845-30.731-59.565 0-101.676 37.56-101.676 97.882v84.224c0 24.281-0.759 73.222-2.655 91.433 15.175 0 28.834 0.38 41.353 1.897-1.138-11.002-1.517-41.353-1.517-56.149v-109.263c0-56.529 28.075-77.016 71.704-77.016 43.25 0 68.67 26.558 68.67 69.048v80.051c0 24.281-0.759 73.222-3.035 91.433 15.175 0 29.213 0.38 42.112 1.897-1.519-11.002-1.897-41.353-1.897-56.149zM42.598 121.125c6.727 14.872 11.154 24.965 15.050 35.055l11.332 1.416 41.431-91.005c5.135-11.153 11.685-25.495 17.174-36.118l-24.611-1.416-14.341 33.108h-50.105l-0.177-0.53c-3.541-8.675-9.029-22.663-12.569-31.163h-24.078l40.898 90.649zM45.253 78.633h36.472l-18.236 43.2-18.237-43.2zM183.048 90.851c-6.196 5.134-13.634 7.613-21.245 7.613-14.695 0-24.786-11.509-24.786-26.203 0-18.060 12.393-27.443 26.028-27.443 9.382 0 15.935 2.656 24.256 10.092l-0.709-20.007c-8.851-5.312-15.757-7.613-27.088-7.613-25.849 0-43.555 18.768-43.555 42.139 0 26.027 18.59 46.563 45.147 46.563 9.561 0 19.474-2.832 26.735-7.967l-4.781-17.175zM264.994 90.851c-6.195 5.134-13.632 7.613-21.245 7.613-14.695 0-24.786-11.509-24.786-26.203 0-18.060 12.394-27.443 26.028-27.443 9.382 0 15.935 2.656 24.256 10.092l-0.709-20.007c-8.851-5.312-15.757-7.613-27.088-7.613-25.849 0-43.555 18.768-43.555 42.139 0 26.027 18.59 46.563 45.147 46.563 9.561 0 19.474-2.832 26.735-7.967l-4.781-17.175zM346.894 68.365l-48.866-1.416c1.24-14.872 9.207-22.486 24.079-22.486 12.924 0 22.486 5.134 30.628 11.154l-0.531-18.413c-9.561-6.195-20.007-9.915-32.399-9.915-28.683 0-42.493 19.654-42.493 42.493 0 26.203 17.175 46.211 43.2 46.211 25.142 0 35.941-18.413 35.941-41.076l-9.561-6.551zM337.156 80.759c-1.416 12.394-6.551 19.12-17.528 19.12-11.863 0-19.474-8.675-21.247-20.361l38.775 1.24zM430.28 109.617l-5.489-16.466c-5.843 3.896-13.101 6.373-20.36 6.373-7.082 0-12.748-2.479-12.748-8.675 0-12.038 41.962-9.561 41.962-35.764 0-17.528-15.049-27.797-34.171-27.797-9.382 0-22.839 2.834-29.744 7.26l0.886 18.767c7.436-5.134 18.944-9.561 28.859-9.561 8.322 0 13.988 3.188 13.988 8.851 0 14.342-41.784 10.092-41.784 37.181 0 14.519 12.571 26.203 31.87 26.203 10.623 0 20.89-3.009 26.735-6.373zM503.124 109.617l-5.489-16.466c-5.843 3.896-13.101 6.373-20.36 6.373-7.082 0-12.748-2.479-12.748-8.675 0-12.038 41.962-9.561 41.962-35.764 0-17.528-15.049-27.797-34.171-27.797-9.382 0-22.839 2.834-29.744 7.26l0.886 18.767c7.436-5.134 18.945-9.561 28.859-9.561 8.322 0 13.988 3.188 13.988 8.851 0 14.342-41.784 10.092-41.784 37.181 0 14.519 12.571 26.203 31.87 26.203 10.623 0 20.891-3.009 26.734-6.373z" />
<glyph unicode="&#xe601;" d="M40.184 128h431.752c4.812 0 8.184 3.479 8.184 7.396v273.178c0 4.35-3.852 7.396-8.184 7.396h-431.752c-4.813 0-8.184-3.48-8.184-7.396v-272.745c0-4.35 3.851-7.829 8.184-7.829v0zM64 384h384v-224h-384v224zM160.261 225.542l-16.303 17.725-9.113-8.18 25.896-24.542 43.639 40.904-9.112 7.271-35.007-33.178zM160.261 298.259l-16.303 17.725-9.113-8.18 25.896-24.541 43.639 40.902-9.112 7.727-35.007-33.633zM503.681 112h-495.361c-4.577 0-8.32-3.867-8.32-8.791v-14.77c0-4.569 3.743-8.439 8.32-8.439h495.361c4.574 0 8.319 3.867 8.319 8.791v14.77c-0.415 4.57-3.745 8.439-8.319 8.439z" />
<glyph unicode="&#xe602;" d="M396 128c-12.667-32.334-39.602-47.478-70.936-57.272l100.666-100.664 62.732 62.742-92.462 95.194zM415.146 272.427c0 113.578-93.996 207.573-207.573 207.573-113.576 0-207.573-93.996-207.573-207.573s93.997-207.573 207.573-207.573c113.577 0 207.573 93.996 207.573 207.573zM207.575 154.934c-64.622 0-117.494 52.875-117.494 117.494 0 64.621 52.874 117.495 117.494 117.495s117.493-52.874 117.493-117.495c-0.001-64.619-52.874-117.494-117.493-117.494z" horiz-adv-x="490" />
<glyph unicode="&#xe603;" d="M70.425 278.537h-7.68c-7.254 0-13.227-7.68-13.227-17.494s5.974-17.494 13.227-17.494h8.533c-0.853 6.828-1.28 13.654-1.28 20.906 0 4.693 0 9.387 0.427 14.080v0.002zM78.532 200.031c-7.254 0-13.227-7.68-13.227-17.492s5.974-17.494 13.227-17.494h14.508c1.707 0 3.413 0.427 5.12 1.28-6.4 10.666-11.947 21.761-16.64 33.707l-2.988-0.001zM124.186 133.472c-3.84-2.986-5.975-8.534-5.975-14.507 0-9.813 5.975-17.493 13.227-17.493h14.506c4.268 0 7.68 2.56 10.24 6.399-11.52 7.254-22.613 15.786-32 25.601h0.002zM357.999 109.578c2.135-1.707 4.693-2.561 7.252-2.561h14.508c7.254 0 13.227 7.68 13.227 17.492 0 4.268-1.281 8.535-3.414 11.521-9.387-10.239-20.053-19.2-31.574-26.454l0.001 0.002zM419.438 169.311h14.506c7.254 0 13.227 7.68 13.227 17.493s-5.975 17.493-13.227 17.493h-2.559c-4.268-11.947-9.389-23.467-15.787-34.135 1.708-0.426 2.561-0.852 3.84-0.851v0zM448.878 284.51h-8.105c0.852-6.826 1.279-13.225 1.279-20.053 0-5.119-0.426-9.813-0.426-14.506h7.68c7.254 0 13.227 7.68 13.227 17.494-0.426 9.387-6.4 17.067-13.654 17.067v-0.002zM441.624 345.098c0 9.814-5.973 17.492-13.225 17.492h-14.508c0 0 0 0-0.426 0 6.826-10.666 12.373-22.187 17.066-34.56 6.4 1.28 11.094 8.534 11.094 17.066l-0.001 0.002zM388.718 404.831c0 9.814-5.975 17.494-13.227 17.494h-14.506c-1.707 0-3.414-0.427-5.121-1.28 11.094-7.253 21.76-15.36 31.148-24.747 0.852 2.56 1.707 5.547 1.707 8.534l-0.001-0.001zM316.612 444.084c0 9.813-5.975 17.493-13.227 17.493h-14.508c-5.973 0-11.094-5.12-12.799-12.373 14.080-1.707 27.307-4.694 40.105-8.96 0.426 1.28 0.426 2.56 0.426 3.84h0.003zM226.158 462.432h-14.506c-7.254 0-13.227-7.68-13.227-17.493 0-1.28 0-2.56 0.428-3.84 12.8 4.267 26.453 6.827 40.533 8.107-1.707 7.68-6.826 13.226-13.225 13.226h-0.003zM151.491 431.284h-14.506c-7.254 0-13.228-7.68-13.228-17.493 0-5.547 2.134-10.667 5.121-13.654 9.813 9.386 20.905 17.493 32.853 24.746-2.559 3.841-5.973 6.4-10.24 6.401v0zM97.732 368.991h-14.506c-7.254 0-13.227-7.68-13.227-17.493 0-9.812 5.974-17.494 13.227-17.494v0c4.694 11.947 11.094 23.467 17.92 34.135-0.853 0.425-2.134 0.852-3.414 0.852zM162.586 103.604c-0.428 0.426-0.854 0.426-1.281 0.853v0l1.281-0.853zM337.519 97.631l1.279 0.426c-0.854 0-0.854-0.426-1.279-0.426v0zM174.105 97.631v0c-0.428 0-0.428 0.426-0.854 0.426l0.854-0.426zM349.038 103.604v0c-0.426-0.426-1.279-0.426-1.707-0.853l1.707 0.853zM174.105 97.631c24.746-11.947 52.48-18.774 81.493-18.774 29.439 0 57.174 6.827 81.494 18.774l-80.215 152.32-82.772-152.32zM267.544 84.83h-20.905v121.174h20.905v-121.174zM421.146 267.018c0 9.812 5.973 17.494 13.225 17.494h5.975c-1.707 14.933-5.119 29.865-10.24 43.52-0.854 0-1.279-0.427-2.133-0.427h-14.080c-7.254 0-13.227 7.68-13.227 17.494 0 9.387 5.975 17.067 13.227 17.493-8.107 12.373-17.068 23.466-27.309 33.707-2.133-5.12-6.826-8.96-11.52-8.96h-14.506c-7.254 0-13.227 7.681-13.227 17.494 0 7.253 3.412 13.653 8.533 16.214-12.373 7.68-25.6 14.506-39.68 19.2-1.279-7.68-6.826-13.654-13.227-13.654h-14.506c-7.254 0-13.227 7.68-13.227 17.493 0 1.707 0.426 3.413 0.854 5.12-6.828 0.853-13.654 1.28-20.48 1.28-5.546 0-11.093-0.427-16.64-0.853 0.428-1.28 0.428-2.987 0.428-4.267 0-9.814-5.975-17.493-13.227-17.493h-14.506c-6.4 0-11.947 5.973-13.227 13.653-13.225-4.267-25.6-9.813-37.119-16.64 1.707-2.986 2.986-6.827 2.986-11.094 0-9.813-5.974-17.493-13.226-17.493h-14.506c-2.987 0-5.974 1.28-8.106 3.84-10.24-9.386-19.201-20.054-27.307-32 5.546-2.134 9.387-8.534 9.387-16.64 0-9.813-5.975-17.494-13.228-17.494h-14.080c-6.826-17.494-11.52-35.84-12.8-55.467h6.826c7.254 0 13.227-7.68 13.227-17.492 0-9.813-5.974-17.494-13.227-17.494h-5.974c1.707-15.36 5.12-29.867 10.24-43.521h11.094c7.254 0 13.227-7.68 13.227-17.493 0-7.252-3.412-13.654-8.105-16.214 7.68-11.946 16.213-23.040 26.025-33.28 2.134 1.707 4.695 2.986 7.255 2.986h14.506c7.254 0 13.226-7.68 13.226-17.492 0-4.268-1.279-8.106-2.986-11.095 1.707-1.28 3.412-2.56 5.547-3.413l94.72 174.506 93.014-174.933c2.986 1.707 5.975 3.84 8.959 5.546-3.84 2.986-6.398 8.534-6.398 14.934 0 9.812 5.973 17.492 13.225 17.492h14.934c3.84 0 7.68-2.134 9.812-5.974 10.24 10.239 18.775 22.187 26.455 34.56-5.547 2.135-9.812 8.534-9.812 16.641 0 9.812 5.973 17.492 13.225 17.492h11.947c5.121 14.508 8.105 29.44 9.387 45.227h-6.4c-7.252 0.427-13.225 8.107-13.225 17.493l-0.005 0.004zM426.69 313.95l5.121-20.053-117.76-29.866-5.121 20.053 117.76 29.866zM84.505 299.871l5.12 20.053 117.333-30.293-5.119-20.053-117.334 30.293zM89.625 212.83l-5.12 20.053 117.76 29.44 5.119-20.053-117.759-29.44zM123.76 145.418l-12.801 16.64 96 73.813 12.801-16.64-96-73.813zM209.945 294.75l-94.293 76.373 13.227 16.215 93.867-76.373-12.801-16.215zM226.158 310.537l-53.333 108.8 18.774 9.387 53.334-109.227-18.775-8.96zM267.544 318.644h-20.905v121.173h20.905v-121.173zM271.812 318.644l51.627 109.654 18.773-8.96-51.627-109.654-18.773 8.96zM389.146 379.231l12.799-16.64-96.426-73.813-12.801 16.64 96.428 73.813zM387.864 143.285l-94.293 76.372 13.227 16.214 94.293-76.373-13.227-16.213zM426.69 209.844l-117.334 30.294 5.121 20.053 117.334-30.293-5.121-20.054zM32.083 32h447.917v-31.875h-447.917v31.875zM174.105 97.631l-35.413-65.707c0 0-14.933 0-16.213 0l39.253 72.533c1.28-0.853 12.374-6.826 12.373-6.826v0zM337.519 97.631l34.984-65.707h14.934l-38.4 71.68-11.518-5.973z" />
<glyph unicode="&#xe604;" d="M288 224h-219.047l-68.953 64 69.703 64h218.312l-0.015-128zM224.095 416h216.68l70.206-64-70.148-64-120.775-0.12 0.023 96-95.904 0.12zM288 480h64l-0.333-32.333h-64l0.333 32.333zM352.042-32h-64.026l-0.016 224h32.062l0.026 64h31.927l0.027-288z" />
<glyph unicode="&#xe605;" d="M228.693 249.6h-35.413v8.96h-0.427c-3.84-5.12-15.36-11.947-33.28-11.947-20.053 0-35.413 8.96-35.413 31.147v52.053h36.694v-42.666c0-10.24 5.547-14.507 14.080-14.507 11.52 0 17.066 7.254 17.066 19.2v37.973h36.694v-80.213zM250.881 305.494c2.134 11.093 6.827 17.92 15.786 21.76 8.96 4.266 22.187 5.546 41.387 5.546 37.546 0 52.053-8.534 52.053-32.426v-38.827c0-5.974 1.707-9.814 3.413-12.374h-37.546c-0.853 2.133-1.28 5.12-1.28 8.106-8.106-7.68-20.48-11.093-40.106-11.093-24.747 0-40.106 6.4-40.106 27.306 0 14.507 10.24 23.893 37.546 25.173l30.72 1.28c7.253 0.426 9.813 2.133 9.813 6.4 0 5.12-6.4 7.68-17.067 7.68-8.534 0-16.64-1.28-18.346-8.96h-36.267zM323.84 286.293c-5.974-1.707-16.64-2.56-29.44-3.413-6.827-0.427-9.813-2.986-9.813-8.106 0-5.547 4.694-8.96 13.654-8.96 12.373 0 26.026 2.986 26.026 16.64v3.84zM56.32 209.067c0 2.56-1.707 4.693-3.84 6.4-1.707 1.707-4.266 2.56-6.826 2.56-4.267 0-9.386-0.853-9.386-6.4 0-2.56 1.706-3.413 3.84-4.267 5.12-2.134 17.067-2.986 27.734-6.4s19.626-9.387 19.626-23.040c0-23.040-21.76-29.014-41.814-29.014-19.2 0-40.533 7.68-40.96 29.014h29.866c0-2.986 1.28-5.12 3.84-7.253 1.706-1.28 4.694-2.56 8.534-2.56 4.266 0 10.666 1.707 10.666 6.4s-2.56 6.4-17.493 8.534c-23.894 4.267-33.706 11.947-33.706 26.026 0 20.906 22.613 26.026 38.827 26.026 17.92 0 39.254-5.12 40.106-26.026h-29.014zM186.881 168.96c0-6.4 0.427-13.226 3.84-18.346h-32c-0.853 2.134-1.28 5.546-1.28 7.68h-0.427c-6.827-7.68-16.214-9.813-26.453-9.813-15.786 0-29.013 7.68-29.013 24.747 0 26.026 30.72 25.173 46.506 28.16 4.267 0.853 8.534 2.134 8.534 7.253 0 5.546-5.12 7.68-10.24 7.68-9.814 0-11.52-5.12-11.947-8.534h-29.44c0.427 11.52 6.4 18.346 14.506 22.186s18.346 4.694 28.16 4.694c39.254 0 39.254-16.214 39.254-32.426v-33.28zM157.013 187.733c-3.84-1.707-8.107-2.986-12.374-3.84-6.827-1.707-10.667-3.413-10.667-8.96 0-3.84 4.267-7.68 9.814-7.68 7.254 0 12.8 4.267 13.226 12.8v7.68zM263.681 150.613h-37.12l-26.88 82.346h33.28l12.8-50.346h0.426l13.226 50.346h32l-27.733-82.346zM366.934 150.613h-37.12l-26.88 82.346h33.28l12.8-50.346h0.426l13.226 50.346h32l-27.733-82.346zM471.893 157.014c-2.56-7.253-5.546-16.64-10.24-23.040-8.106-10.24-20.906-10.24-33.28-10.24h-14.507v25.173h7.253c2.986 0 7.253-0.426 9.387 0.853 1.707 0.853 2.986 2.56 2.986 6.4s-11.947 34.134-13.654 39.254l-14.080 37.974h33.707l13.226-47.36h0.426l13.226 47.36h32.426l-26.88-76.373z" />
<glyph unicode="&#xe606;" d="M235.895 254.6l73.165-73.165-73.165-73.165v146.33zM0-1h512v385h-512v-385zM258.349 306.669c68.58 0 124.478-55.427 124.478-124.478 0-68.58-55.428-124.478-124.478-124.478s-124.478 55.897-124.478 124.478c0 68.581 55.897 124.478 124.478 124.478v0 0zM0 448.333h512v-32.667h-512v32.667z" />
<glyph unicode="&#xe607;" d="M504.088 172.272c-0.527 17.419-4.223 33.783-10.029 49.616-7.39 20.059-19.003 38.005-32.727 54.368-3.167 3.695-5.807 6.862-8.445 10.558-3.167 4.222-5.807 8.975-7.39 14.252-2.64 6.862-2.64 14.252 0 21.114 2.64 6.335 4.223 12.668 5.806 19.53 2.112 10.558 2.64 21.113 2.112 31.671-0.527 5.807-1.583 11.613-3.167 17.419-2.112 7.391-4.223 14.78-5.279 22.169-0.527 4.223-1.055 8.446-1.583 12.141-0.527 5.807 0.527 11.084 1.583 16.892 1.583 7.391 3.695 14.779 5.279 22.697 0 0.527 0 1.055 0.527 1.583-10.029 4.222-19.529 7.918-29.56 12.141-0.527-1.055-0.527-2.112-1.055-3.167-1.583-5.807-3.695-11.084-6.861-15.836-2.64-3.695-5.279-7.39-9.502-10.029-7.39-4.75-14.78-9.501-21.64-14.252-5.806-3.695-12.139-7.39-17.947-11.613-10.029-6.334-19.529-14.252-27.975-22.697-1.055-1.055-1.583-1.055-2.64-0.527-10.558 2.639-21.115 4.75-31.671 6.334-8.445 1.055-16.363 2.112-24.808 2.639-9.502 0.528-18.474 1.056-27.975 0.528-5.279 0-10.558-0.528-15.835-1.055-6.334-0.527-12.668-1.583-19.003-2.112-8.975-1.055-17.419-2.639-26.393-4.75-2.639-0.528-5.807-1.056-8.446-2.112-1.055-0.528-1.583 0-2.639 0.527-7.918 7.918-16.363 14.78-25.336 20.587-6.862 4.751-13.725 8.975-20.587 13.196-6.335 4.222-12.668 7.918-19.003 12.141-8.445 5.279-14.252 12.668-17.419 22.169-1.055 2.639-1.583 4.75-2.112 7.39 0 0.527-0.528 1.055-0.528 1.583-10.029-4.223-19.531-7.918-29.56-12.139 0.528-2.112 1.055-4.223 1.583-6.335 2.112-7.39 3.695-15.307 5.278-23.227 1.055-6.334 1.055-13.195 0-19.529-1.583-9.502-3.695-18.475-6.334-27.448-3.167-10.558-3.696-21.113-2.639-32.197 0.528-9.502 2.112-18.476 4.751-27.448 1.055-2.641 1.583-5.279 2.639-7.391 3.167-7.918 2.639-15.835-0.528-23.753-2.639-6.334-6.334-12.139-10.557-16.892-6.861-7.918-13.196-15.836-19.003-24.808-11.612-17.419-20.058-35.895-24.808-55.951-2.111-8.445-3.167-16.892-3.694-25.863 0-1.055-0.527-2.64-0.527-3.695 0-4.223 0-8.445 0-12.139 0-1.055 0.527-2.112 0.527-3.167 1.583-27.448 10.030-53.313 23.224-77.065 6.334-11.613 13.725-22.697 21.64-33.783 0.528-0.527 0.528-0.527 1.055-1.055 3.696 8.445 6.861 16.363 10.557 24.281 0 0 0 0 0.528 0 0.528-1.055 0.528-2.64 1.055-3.695 4.222-18.474 12.668-34.31 24.281-49.089 10.030-12.668 22.169-23.227 35.366-32.197 7.39-5.279 14.779-9.502 23.224-14.252 0.528 0.527 1.055 1.055 1.583 1.583 1.055 2.112 2.639 4.223 3.696 6.334 3.167 5.806 6.334 11.084 10.558 16.363 3.696 5.279 7.918 10.029 13.196 13.725 4.75 3.695 9.501 5.807 14.78 7.39 5.807 1.055 11.613 1.055 17.419-0.527 6.862-2.112 12.668-4.75 18.476-8.974 9.501-6.334 17.419-13.725 24.809-22.169 1.055-1.055 1.583-2.112 2.641-3.167 0.527 0.527 0.527 0.527 1.055 1.055 5.806 7.918 13.195 14.252 20.587 20.587 5.806 4.223 11.613 7.918 17.947 10.558 4.75 2.112 9.502 3.167 14.78 3.695 7.39 0.527 13.725-1.583 20.059-5.279 5.806-3.695 10.029-7.918 14.252-13.195s7.918-10.558 11.084-16.363c1.583-3.167 3.695-5.807 5.279-8.974 0.527-1.055 1.055-1.583 1.583-2.112 0.527 0 0.527 0 0.527 0 13.725 7.39 26.393 15.836 38.533 26.393 11.613 10.029 22.169 21.64 30.087 34.837 6.861 11.613 11.613 23.753 14.252 36.949 0 0.527 0 0.527 0.527 1.583 3.695-8.445 6.861-16.363 10.558-24.808 0.527 0.527 0.527 0.527 0.527 0.527 13.725 18.474 25.863 38.005 33.781 59.117 4.75 12.139 7.918 24.808 10.029 37.476 1.055 5.279 1.583 10.558 1.583 15.836 0 1.055 0 1.583 0.527 2.64 0 3.167 0 6.861 0 10.029-0.527 1.583-0.527 2.112-0.527 2.64zM420.159 181.245c0-0.527 0-1.055 0-1.583 0-3.167-0.527-6.334-1.055-9.502-1.055-7.918-3.695-15.308-6.861-22.697-5.279-13.195-13.195-24.808-22.697-35.894 0 0-0.527 0-0.527-0.527-2.112 4.75-4.75 10.029-6.861 14.78 0-0.527 0-0.527-0.527-1.055-1.583-7.918-4.75-15.308-9.502-22.169-5.279-7.918-12.139-14.78-20.059-21.115s-16.363-11.084-25.336-15.836c0 0 0 0-0.527 0-0.527 0.527-0.527 1.055-1.055 1.583-1.055 1.583-2.112 3.695-3.695 5.279-2.112 3.695-4.75 6.861-7.39 10.029s-5.806 5.807-9.502 7.918c-4.223 2.112-8.445 3.695-13.195 3.167-3.695 0-6.861-1.055-10.029-2.112-4.223-1.583-8.445-3.695-12.139-6.334-5.279-3.695-10.029-7.918-13.725-12.139 0 0-0.528-0.527-0.528-0.527-0.528 0.527-1.055 1.583-1.583 2.112-4.75 5.279-10.030 9.502-16.363 13.725-3.696 2.112-7.918 4.223-12.141 5.279-3.696 1.055-7.391 1.055-11.613 0.527-3.696-0.527-6.862-2.112-10.030-4.223-3.167-2.64-6.334-5.279-8.975-8.445s-4.75-6.334-6.862-10.029c-1.055-1.055-1.583-2.64-2.639-3.695 0-0.527-0.528-0.527-1.055-1.055-5.279 2.64-10.558 5.279-15.309 8.445-8.446 5.807-16.892 12.139-23.227 19.529-7.918 8.974-13.196 18.474-16.363 29.56 0 0.527-0.528 1.583-0.528 2.64 0 0 0 0 0 0-2.112-4.75-4.751-10.029-6.862-14.78-0.528 0.527-0.528 0.527-0.528 0.527-5.279 6.334-10.030 13.195-14.252 20.587-8.445 14.78-14.252 30.087-15.309 46.979 0 0.527 0 1.055-0.528 1.583 0 2.64 0 4.75 0 7.39 0 0.527 0.528 1.583 0.528 2.112 0.528 5.279 1.055 10.558 2.639 15.836 3.167 12.139 8.975 23.753 16.362 33.781 3.695 5.279 7.918 10.030 12.668 14.779 3.167 3.167 5.279 6.334 6.862 10.558 2.112 4.75 2.639 9.501 0.528 14.252-0.528 1.583-1.055 3.167-1.583 4.75-1.583 5.279-2.639 11.084-3.167 16.892-0.528 6.334 0 13.196 2.112 19.529 1.583 5.279 3.167 11.084 4.222 16.363 0.528 3.695 0.528 7.918 0 11.613-1.055 4.75-2.112 9.501-3.167 13.725-0.528 1.055-0.528 2.64-1.055 3.694 6.334 2.641 13.197 4.751 19.53 7.391 0-0.528 0-0.528 0.528-1.056 0.528-1.583 1.055-3.167 1.583-4.223 2.112-5.806 5.807-10.029 11.613-13.195 4.222-2.112 8.446-4.75 12.668-7.39 4.75-2.641 8.975-5.279 13.725-7.918 5.807-3.696 11.613-7.918 16.892-12.668 0.528-0.528 1.055-0.528 1.583-0.528 1.583 0.528 3.696 1.055 5.279 1.055 5.807 1.055 11.613 2.112 17.419 2.639 4.222 0.528 8.446 1.056 12.668 1.056 3.696 0.527 6.862 0.527 10.558 0.527 6.335 0 12.141 0 18.475-0.527 5.279-0.528 11.084-1.056 16.363-1.583 6.861-1.055 14.252-2.112 21.115-3.696 0.527 0 1.055 0 2.112 0.528 5.807 5.279 11.613 10.029 18.474 13.725 4.223 2.112 7.918 4.75 12.139 6.861 4.75 2.64 9.502 5.807 14.252 8.445 2.64 1.583 4.75 3.695 6.334 5.807 2.112 3.167 3.695 6.335 4.75 9.502 0 0.528 0.527 1.055 0.527 2.112 6.334-2.641 13.195-4.751 19.529-7.391 0-0.527 0-0.527-0.527-1.055-1.055-4.75-2.64-8.975-3.695-13.725-1.055-3.167-1.583-6.861-1.055-10.030 0-2.639 0.527-4.75 1.055-7.389 1.055-4.75 2.112-8.975 3.695-13.197 1.055-3.695 2.112-6.862 2.112-10.558 0.527-6.334 0-12.668-1.583-19.529-1.055-4.222-2.112-7.918-3.695-11.613-1.583-4.223-1.583-8.445 0-12.668 1.055-3.167 3.167-5.807 5.279-8.445 1.583-2.112 3.695-4.223 5.806-6.335 8.974-10.030 16.363-20.587 21.64-32.727 4.223-9.502 6.334-19.529 6.861-30.087 0-0.527 0-0.527 0-1.055-1.583-2.64-1.583-4.75-1.583-6.861z" />
<glyph unicode="&#xe608;" d="M386.295 480h-260.588c-16.678 0-29.707-11.75-29.707-25.757v-460.010c0-14.461 13.552-25.757 29.707-25.757h260.588c16.676 0 29.705 11.751 29.705 25.757v460.010c0 14.461-13.552 25.757-29.705 25.757v0zM256.060-9.106c-17.843 0-31.861 12.49-31.861 28.384 0 15.898 14.018 28.388 31.861 28.388s31.863-12.489 31.863-28.388c0-15.327-14.655-28.384-31.863-28.384zM384 64h-256v384h256v-384zM352.016 416l-192.016-320h192l0.016 320z" />
<glyph unicode="&#xe609;" d="M8.459 405.649h17.363l11.575-32.056c2.225-5.342 4.453-14.247 4.453-14.247s2.225 8.905 4.898 14.247l15.582 32.501h1.781l15.582-32.501c2.671-5.342 4.898-14.247 4.898-14.247s2.225 8.905 4.451 14.247l11.576 32.056h16.028l-29.385-80.584h-1.781l-18.254 38.29c-2.225 4.451-4.452 12.021-4.452 12.021s-2.672-7.57-4.452-12.021l-18.699-38.29h-1.78l-29.384 80.584zM125.552 405.649h16.472v-79.694h-16.472v79.695zM156.716 405.649v-79.694h53.426v14.248h-36.508v65.447zM244.869 340.202c17.808 0 25.822 10.685 25.822 25.377s-8.014 25.377-25.822 25.377h-7.124v-50.755h7.124zM220.827 405.649h24.932c24.932 0 42.295-16.473 42.295-39.625 0-23.596-17.363-40.070-42.297-40.070h-24.932v79.695zM296.959 365.579c0 23.596 18.253 40.959 41.405 40.959 14.692 0 24.933-5.342 32.055-16.472l-12.466-8.905c-4.007 6.233-10.24 10.24-19.591 10.24-14.692 0-24.486-11.131-24.486-25.823s9.795-26.267 24.486-26.267c10.24 0 16.028 4.898 20.925 11.577l12.911-8.905c-7.124-10.685-18.253-17.363-33.836-17.363-23.151 0.445-41.405 17.809-41.405 40.96zM418.95 348.66l-5.787 13.801c-2.227 5.788-4.897 14.248-4.897 14.248s-2.227-8.459-4.897-14.248l-5.787-13.801h21.37zM407.819 406.094h1.336l36.952-80.584h-17.363l-4.007 8.905h-32.501l-3.562-8.905h-16.028l35.173 80.584zM438.539 405.649v-14.247h23.151v-65.447h16.473v65.447h23.151v14.247zM194.56 300.132h28.939v-5.788h-22.262v-17.809h20.48v-5.787h-20.48v-24.041h-6.679zM235.965 272.974c0-11.575 6.233-21.815 17.363-21.815s17.364 10.24 17.364 22.26c0 10.685-5.787 21.815-17.363 21.815s-17.363-10.685-17.363-22.262zM278.262 273.863c0-18.255-11.13-28.048-24.932-28.048-14.248 0-24.487 11.13-24.487 27.157 0 16.919 10.685 28.048 24.932 28.048 14.692 0 24.487-11.13 24.487-27.157zM292.507 274.755h7.124c7.569 0 12.021 4.007 12.021 10.24 0 6.678-4.897 9.795-12.466 9.795-3.562 0-5.787-0.446-6.678-0.446v-19.59zM285.385 299.241c3.562 0.891 8.459 1.336 13.356 1.336 7.568 0 12.466-1.336 15.582-4.452 2.671-2.227 4.452-6.233 4.452-10.24 0-7.124-4.452-11.577-10.24-13.801v-0.446c4.007-1.336 6.678-5.342 8.014-10.685 1.781-7.57 3.116-12.466 4.007-14.692h-7.124c-0.89 1.335-2.227 6.233-3.562 12.912-1.781 7.57-4.452 10.24-10.685 10.24h-6.678v-23.15h-7.124v52.982zM11.131 221.329v-177.197h117.983v32.055h-81.029v145.142zM159.387 221.329h36.952v-177.197h-36.952v177.196zM234.185 221.329v-177.197h36.952v53.872h71.68v32.501h-71.68v58.769h78.803v32.055zM380.66 221.329v-177.197h122.435v32.055h-85.481v25.377h72.125v31.164h-72.125v56.543h81.921v32.055zM16.027 278.762h154.491v-4.898h-154.491v4.898zM338.81 278.762h154.49v-4.898h-154.49v4.898z" />
<glyph unicode="&#xe60a;" d="M32-0.001v448.001h-32v-480h480v32l-448-0.001zM64.5 480l-0.167-448.333h447.667v448.333h-447.5zM192 320v-32h-32v32h32zM160.021 352v31.979h31.979v-31.979h-31.979zM448 96l-320 0.104v127.896h320v-128zM416 384v-32h-192v32h192zM416.001 320v-32.021h-192.001v32.021h192.001zM448 416h-320v32h320v-32z" />
<glyph unicode="&#xe60b;" d="M102.322 358.643h39.926l94.508-267.553h-36.529l-23.181 69.57h-115.533l-24.486-69.57h-33.492l98.785 267.553zM70.961 188.156h96.64l-46.815 141.309-49.825-141.309zM234.173 238.421h86.315v-27.497h-86.315v27.496zM323.074 119.877l134.435 211.292h-129.267v27.499h165.344v-30.47l-132.717-209.639h136.153v-27.471h-173.949z" />
<glyph unicode="&#xe60c;" d="M320.021 384h-160.021v-96h160.021v96zM288 311.334h-96v17.825h96v-17.825zM288 361v-17.835h-96v17.835h96zM0 479.99h32v-512.168h-32v512.168zM64.016-32h351.984l0.016 512h-352v-512zM128 416l224.016-0.016-0.016-160.151h-224v160.167zM448 448h32v-96h-32v96zM448 320h32v-96h-32v96z" />
<glyph unicode="&#xe60d;" d="M336 480v-32h-159.667v32h159.667zM0 480h112v-32h-112v32zM128 480h32.062l-0.062-32h-32v32zM352 480h32v-32h-32v32zM512 431.917v-31.917h-511.974l-0.026 32 512-0.083zM400 480h111.999v-32h-111.999v32zM0.026-30.516h511.974v414.183h-511.974v-414.183zM142.262 28.979c-15.126 0-32.774 1.696-42.427 4.612l2.965 16.395c7.969-2.104 24.756-3.776 36.525-3.776 41.136 0 72.606 22.654 72.606 60.458 0 32.736-34.829 53.312-86.454 53.312l3.344 16.394c39.464 1.241 73.874 32.737 73.874 64.652 0 25.604-18.865 39.045-47.851 39.045-18.472 0-36.12-6.752-50.386-15.962l-1.659 13.836c12.163 12.606 34.84 23.946 62.561 23.946 45.317 0 71.784-22.678 71.784-54.998 0-32.751-26.465-58.354-52.487-67.604 35.271-6.31 61.319-31.090 61.319-64.233 0-51.236-47.041-86.077-103.71-86.077h-0.004zM353.444 36.124c-16.407 0-44.507-0.834-55.010-1.241v11.757l26.021 2.081c10.098 0.836 13.86 4.181 13.86 33.599v176.315c0 3.787-1.697 7.131-5.891 7.131-2.94 0-8.805-1.242-15.101-2.929l-28.545-7.97-1.685 12.176 82.299 39.463v-224.192c0-29.418 4.624-32.762 13.86-33.598l27.707-2.081v-11.757c-10.504 0.407-41.567 1.243-57.518 1.243v0.003z" />
<glyph unicode="&#xe60e;" d="M351.671 223.511c0-52.837-42.834-95.671-95.671-95.671s-95.671 42.834-95.671 95.671c0 52.838 42.834 95.671 95.671 95.671s95.671-42.834 95.671-95.671zM224 480h65v-128h-65v128zM419.772 434.238l45.962-45.962-90.508-90.508-45.962 45.962 90.508 90.508zM137.090 151.022l45.962-45.962-90.508-90.508-45.962 45.962 90.508 90.508zM384 256.5h128v-65h-128v65zM465.555 60.512l-45.962-45.962-90.509 90.509 45.962 45.962 90.509-90.509zM183.049 343.038l-45.962-45.962-90.509 90.509 45.962 45.962 90.509-90.509zM0 256.5h128v-65h-128v65zM224 96.682h65v-128h-65v128z" />
<glyph unicode="&#xe60f;" d="M253.023 252.659c-11.913-0.065-21.511-9.766-21.466-21.656 0.066-11.914 9.754-21.511 21.667-21.464 11.89 0.065 21.511 9.765 21.442 21.679-0.042 11.892-9.753 21.509-21.643 21.441v0zM320 415.667l-127.958 32.333 0.021-331.375c2.785-0.897 6.899-2.273 9.742-2.944l-4.14-17.45c-3.12 0.718-2.569 0.788-5.623 1.728l-0.049-65.974 128.016-32-0.009 415.682zM217.755 93.049c-3.41 0.268-6.779 0.671-10.179 1.207l2.839 17.695c2.864-0.446 5.751-0.803 8.669-1.006l-1.333-17.896h0.004zM227.945 92.715l-0.136 17.942c2.906 0.023 5.817 0.155 8.748 0.403l1.577-17.876c-3.41-0.291-6.803-0.446-10.192-0.472l0.003 0.003zM248.271 94.55l-3.099 17.651c2.839 0.514 5.683 1.098 8.545 1.858l4.52-17.361c-3.32-0.871-6.643-1.588-9.966-2.146v-0.002zM267.924 99.604l-5.794 16.982c2.75 0.938 5.468 1.992 8.22 3.155l7.058-16.485c-3.165-1.34-6.319-2.571-9.483-3.648v-0.004zM295.319 112.404c-2.931-1.747-5.842-3.379-8.771-4.878l-8.176 15.972c2.582 1.343 5.2 2.751 7.786 4.316l9.161-15.41zM297.108 229.729c-0.135-4.63-0.985-9.071-2.45-13.244-9.252-30.904-41.118-71.309-41.118-71.309s-32.26 40.11-41.792 70.915c-1.512 4.151-2.405 8.591-2.583 13.222-0.022 0.523-0.045 1.052-0.045 1.575-0.124 24.309 19.497 44.107 43.792 44.218 24.308 0.111 44.127-19.497 44.218-43.804 0-0.523 0-1.052-0.023-1.576l0.001 0.003zM480.334 448l-128.209-32-0.109-416.016 127.984 32 0.334 416.016zM361.818 164.909l-8.779 15.685c3.144 1.746 6.229 3.267 9.282 4.607l7.17-16.467c-2.528-1.092-5.093-2.347-7.675-3.825h0.002zM377.412 171.686l-5.269 17.136c3.489 1.095 6.878 1.901 10.248 2.529l3.175-17.651c-2.651-0.491-5.379-1.164-8.152-2.014h-0.002zM402.087 174.506c-1.789 0.179-3.601 0.223-5.428 0.223l-2.841-0.065-0.896 17.897 3.633 0.089c2.363 0.021 4.722-0.065 6.992-0.246l-1.467-17.896 0.007-0.002zM418.441 171.080c-2.604 0.873-5.292 1.655-8.088 2.216l3.671 17.585c3.546-0.74 6.924-1.699 10.167-2.797l-5.75-17.004zM426.305 167.885l7.605 16.242c3.221-1.477 6.275-3.135 9.137-4.81l-9.137-15.438c-2.406 1.43-4.958 2.773-7.605 4.007v-0.001zM441.127 159.112l10.515 14.563c3.021-2.215 5.706-4.362 8.044-6.397l-11.756-13.535c-1.972 1.676-4.241 3.51-6.805 5.369h0.002zM160.019 448.125l-127.998-32.149-0.119-168.601 10.466-9.571-10.327-11.179-0.145-226.641 128.104 32 0.019 416.141zM37.474 217.894l12.194 13.158 6.934-6.444-12.183-13.144-6.945 6.43zM51.354 205.021l12.194 13.155 6.934-6.443-12.18-13.155-6.947 6.443zM65.235 192.134l12.194 13.157 6.958-6.421-12.204-13.177-6.948 6.441zM79.119 179.247l12.215 13.155 6.934-6.442-12.204-13.157-6.945 6.444zM93.001 166.384l12.215 13.133 6.948-6.421-12.216-13.157-6.947 6.445zM106.917 153.498l12.202 13.157 6.947-6.465-12.216-13.154-6.934 6.462zM120.607 140.7l12.505 12.864c2.158-2.103 4.385-4.138 6.642-6.131l-11.889-13.445c-2.448 2.171-4.876 4.386-7.257 6.714l-0.001-0.002zM135.473 127.638l11.208 14.026c2.337-1.88 4.741-3.691 7.171-5.438l-10.426-14.585c-2.708 1.925-5.338 3.917-7.953 5.997v0zM293.667 132.584l6.333 4.333 10.167-16.083-7.083-3.417zM305.667 139.917l6.333 4.333 10.167-16.083-7.083-3.417zM159.89 131.986l6.426-4.193-10.968-15.547-5.868 5.236zM465.331 163.027l5.877-4.652-11.231-14.884-5.646 5.475zM477.304 153.26l5.877-4.653-11.232-14.883-5.645 5.474z" />
<glyph unicode="&#xe610;" d="M152.964 315.953v17.89l-4.394-9.076c0.492-3.484 1.996-6.564 4.394-8.814v0zM176.448 324.74l-4.406 9.115v-17.914c2.411 2.247 3.914 5.328 4.406 8.801v-0.002zM186.662 303.53c-3.081-3.257-6.741-5.947-10.884-7.763l21.69-46.248 6.388-0.039h8.837l-26.031 54.050zM112.451 249.771l15.201-0.050 21.589 46.044c-4.141 1.842-7.814 4.506-10.884 7.788l-26.071-54.072h0.417l-0.253 0.289 0.001 0.001zM169.794 230.405h-14.431l7.185-8.004 7.246 8.004zM148.685 249.656l27.674-0.076-13.863 29.555-13.811-29.479zM136.262 223.159l-4.987-10.631h14.494l-9.507 10.631zM94.472 212.501h15.743l8.37 17.903h-15.479l-8.634-17.903zM423.12 415.982h-391.079v-383.982h480.084v299.732l-89.005 84.25zM261.625 191.979l-198.238 0.046 96.645 204.99 101.593-205.036zM480.333 64h-416.333v32h416.333v-32zM480 128h-416v32h416v-32zM480.166 192h-192.166v31.991h192.166v-31.991zM288 256v32.083h192.166v-32.083h-192.166zM221.924 230.405h-15.492l8.37-17.903h15.757l-8.635 17.903zM179.327 212.501h14.43l-4.95 10.504-9.48-10.504zM0.125 383.938h19.684v-351.938h-19.684v351.938z" />
<glyph unicode="&#xe611;" d="M298.23 245.771c-64.885 0-116.188 52.813-116.188 116.188 0 34.707 15.090 64.884 39.232 86.009h-125.241v-447.968l127.967 119.334 128.334-119.001-0.334 263.334c-15-14.333-37.169-17.896-53.768-17.896v0h-0.002zM298.23 458.534c-52.812 0-95.063-42.251-95.063-95.064s42.251-95.064 95.063-95.064c52.813 0 95.065 42.251 95.065 95.064s-42.251 95.064-95.065 95.064zM349.536 331.782l-21.126-21.125-30.177 31.688-31.688-31.688-19.615 19.616 31.687 31.688-31.687 31.687 19.615 19.616 31.688-31.688 31.688 31.688 19.616-19.616-31.688-31.688 31.687-30.178z" />
<glyph unicode="&#xe612;" d="M128 480v-512l128 129.5 128.334-129.5v512h-256.334z" />
<glyph unicode="&#xe613;" d="M192.637 31.701l-192.604 192.606 79.587 79.572 192.605-192.618-79.588-79.56zM512 350.999l-318.74-319.324-79.562 79.588 318.716 319.31 79.586-79.574z" />
<glyph unicode="&#xe614;" d="M0 67.58l412.42 412.42 99.466-99.497-412.389-412.42-99.497 99.497zM99.469 479.984l412.42-412.421-99.466-99.455-412.42 412.378 99.466 99.498z" />
<glyph unicode="&#xe615;" d="M93.797 256.016l162.203-160.016 155.118 160.003-317.321 0.013zM192.043 480.004l127.957-0.008-0.021-209.671-127.958 0.008 0.022 209.671zM511.962 31.995l0.038 159.943-113 0.062-143.019-143.124-142.731 143.124-113.25-0.001v-160l511.962-0.004zM0-0.019h511.998l0.002-31.981h-511.998l-0.002 31.981z" />
<glyph unicode="&#xe616;" d="M187.837 237.085l-91.5-92.242v178.645l91.5-86.403zM257.19 234.166l-124.52 118.201h249.003l-124.483-118.201zM291.904 221.204l91.518-93.672h-251.79l91.925 92.771 33.635-32.419 34.712 33.32zM325.549 237.916l90.512 85.518v-178.148l-90.512 92.63zM0-32h512v512h-512v-512zM448 96h-384v287.5h384v-287.5z" />
<glyph unicode="&#xe617;" d="M32 447.987h448v-127.987h-448v127.987zM32 287.994h448v-127.987h-448v127.987zM32 127.822h448v-127.987h-448v127.987z" />
<glyph unicode="&#xe618;" d="M232.779 209.223c-8.445 0-19 4.222-25.333 10.556s-10.556 16.889-10.556 25.333l-57.002-57.002c4.222-6.336 8.445-14.777 14.778-21.113s14.778-12.667 23.221-16.889l54.89 59.113zM435.447 449.892c-35.89 35.89-92.89 35.89-128.781 0l-154.114-154.114c-25.333-25.333-31.668-63.334-21.113-95.003l198.447 198.447c14.777 14.778 38 14.778 52.779 0s14.777-38 0-52.779l-12.667-16.889-181.56-185.78c31.667-10.557 67.555-4.222 92.89 21.113l154.114 154.114c35.89 38.001 35.89 95.003 0 130.892v0zM306.668 228.222c6.336-6.335 10.557-16.89 10.557-25.333l57.002 57.002c-4.222 8.445-8.445 14.777-14.777 21.113s-14.777 12.667-21.113 16.889l-57.002-59.113c8.445 0 16.889-4.222 25.333-10.556v0zM380.558 247.221l-80.224-78.111-118.224-118.224c-14.778-14.777-38-14.777-52.779 0s-14.778 38 0 52.779l44.334 44.334 103.445 107.668 46.447 46.447c-31.668 10.557-67.555 4.222-92.89-21.113l-154.114-154.114c-35.891-35.89-35.891-92.89 0-128.781s92.89-35.891 128.781 0l154.114 154.114c25.333 27.445 31.668 63.334 21.113 95.002v0z" />
<glyph unicode="&#xe619;" d="M11.338 281.568h491.727v-134.324h-491.727v134.324z" />
<glyph unicode="&#xe61a;" d="M96 480h128v-512h-128v512zM288.021 480h127.979v-512h-127.979v512z" />
<glyph unicode="&#xe61b;" d="M511.705 288h-191.705v192h-128v-192h-192v-128.001h192l-0.016-191.999h128l0.016 192.083h191.705z" />
<glyph unicode="&#xe61c;" d="M128 239.75h64v-15.75h-64v15.75zM320 351.75v-31.75h-128v31.751l128-0.001zM192 191.938l128 0.062v-96h-128v95.938zM0-32h512v512h-512v-512zM416 192h-64v-128l-192-0.252v127.667l-64.333 0.252v128.666h64.314l0.019 63.667 192.020 0.016-0.52-64.008 64-0.016 0.5-127.992z" />
<glyph unicode="&#xe61d;" d="M262.64 97.699c-70.056-4.002-130.101 48.038-134.105 118.094s48.038 130.101 118.094 134.104c26.021 2.002 52.041-6.007 74.058-18.015l90.071 90.072c-48.040 38.029-108.086 58.048-174.14 54.043-140.109-10.007-244.191-130.1-236.185-270.213 10.008-140.109 130.101-244.189 270.213-236.184 70.056 4.002 130.101 36.026 172.136 86.068l-88.066 90.069c-22.018-28.021-54.045-46.035-92.074-48.038v0h-0.002zM480 448l0.335-192.102-192.585 0.144 192.25 191.958z" />
<glyph unicode="&#xe61e;" d="M0 480h512v-512h-512v512z" />
<glyph unicode="&#xe61f;" d="M352 63.938l-192 0.062v127.999l-160-0.020v-160.021l511.999 0.041 0.001 159.985-160 0.016v-128.062zM0.001 0.083h511.999v-32.083h-511.999v32.083zM256 475.981l-189.667-188.314h376.667l-187 188.314zM320 299.294l0.167-203.294-128-0.167-0.167 203.461h128z" />
<glyph unicode="&#xe620;" d="M352-0.083v128.083h128.001l-128.001-128.083zM160.016-0.016l-128.016 128.016 128-0.016 0.016-128zM32.016 319.984l128.026 127.974-0.026-127.943-128-0.031zM352.016 447.984l128.026-127.984h-128.026v127.984zM191.85 287.854l128.15 0.146 0.15-128-128.15-0.146-0.15 128z" />
<glyph unicode="&#xe621;" d="M324.726 0l155.274 155.274v-155.274h-155.274zM32 155.274l155.274-155.274h-155.274v155.274zM184.688 447.688l-152.688-152.688v152.688h152.688zM480 292l-152.688 155.275h152.688v-155.275zM192 288h128v-128h-128v128z" />
<glyph unicode="&#xe622;" d="M256-21.688v500.595l255.526-250.297-255.526-250.298zM0-20.594v500.594l242.881-250.297-242.881-250.297z" />
<glyph unicode="&#xe623;" d="M256 481v-513l-255.526 256 255.526 257zM512 479.906v-511.906l-243 256 243 255.906z" />
<glyph unicode="&#xe624;" d="M320 160v320h-127.833v-319.834h-127.917l191.75-190.618 192.334 190.452h-128.334z" />
<glyph unicode="&#xe625;" d="M300.088 358.562l-226.276-226.275 90.392-90.391 226.158 226.156 90.45-90.45-0.8 270.375-270.671 1.331 90.747-90.746z" />
<glyph unicode="&#xe626;" d="M320.334 396.843v-109.070l-320.334 0.227v-128l320.333-0.228v-108.614l191.667 172.842-191.666 172.843z" />
<glyph unicode="&#xe627;" d="M389.635 180.191l-226.276 226.276-90.391-90.392 226.156-226.158-90.45-90.45 270.375 0.8 1.331 270.671-90.745-90.747z" />
<glyph unicode="&#xe628;" d="M192.026 289.548v-320.001h127.833l0.001 319.835h127.916l-191.75 190.618-192.334-190.452h128.334z" />
<glyph unicode="&#xe629;" d="M191.666 51.159v109.070l320.334-0.227v128l-320.333 0.228v108.614l-191.667-172.842 191.666-172.843z" />
<glyph unicode="&#xe62a;" d="M211.968 88.54l226.276 226.275-90.392 90.391-226.158-226.155-90.45 90.45 0.801-270.375 270.67-1.333-90.747 90.747z" />
<glyph unicode="&#xe62b;" d="M121.784 267.776l226.276-226.275 90.391 90.392-226.156 226.158 89.91 89.91-270.204-0.023v-270.326l89.783 90.164z" />
<glyph unicode="&#xe62c;" d="M32-0.001l0.042 447.959-29.651 32.042h-2.391v-512h512l-31.75 32-448.25-0.001z" />
<glyph unicode="&#xe62d;" d="M467.036 351.913l-210.957-210.627-210.912 210.465-45.167 0.167 256.13-255.837 255.87 255.837-44.964-0.005z" />
<glyph unicode="&#xe62e;" d="M31.75 0l-31.75-32h512v512h-2.391l-29.65-32.042 0.041-447.959-448.25 0.001z" />
<glyph unicode="&#xe62f;" d="M128.086 435.036l210.626-210.957-210.463-210.913-0.167-45.166 255.836 256.13-255.836 255.87 0.004-44.964z" />
<glyph unicode="&#xe630;" d="M480-0.25l32-31.75v512h-512v-2.391l32.042-29.65 447.959 0.041-0.001-448.25z" />
<glyph unicode="&#xe631;" d="M44.964 96.087l210.957 210.627 210.913-210.465 45.166-0.167-256.13 255.837-255.87-255.837 44.964 0.005z" />
<glyph unicode="&#xe632;" d="M31.999 448l447.959-0.041 32.042 29.65v2.391h-512v-512l32 31.75-0.001 448.25z" />
<glyph unicode="&#xe633;" d="M383.912 12.965l-210.627 210.957 210.465 210.912 0.167 45.166-255.837-256.129 255.837-255.87-0.005 44.964z" />
<glyph unicode="&#xe634;" d="M64.468 394.529l362.055-362.051-362.054-0.017-0.001 362.068z" />
<glyph unicode="&#xe635;" d="M-0.010 320.021h512.020l-255.999-256.021-256.021 256.021z" />
<glyph unicode="&#xe636;" d="M85.961 31.967l362.052 362.055 0.017-362.054-362.069-0.001z" />
<glyph unicode="&#xe637;" d="M160.004-32.010v512.021l256.021-255.999-256.021-256.022z" />
<glyph unicode="&#xe638;" d="M447.023 53.961l-362.055 362.051 362.056 0.017v-362.068z" />
<glyph unicode="&#xe639;" d="M512.011 128.006l-512.021-0.002 255.999 256.022 256.022-256.020z" />
<glyph unicode="&#xe63a;" d="M426.070 415.96l-362.050-362.056-0.018 362.055 362.068 0.001z" />
<glyph unicode="&#xe63b;" d="M351.995 480.010l0.002-512.020-256.022 255.999 256.020 256.021z" />
<glyph unicode="&#xe63c;" d="M459.495 351.823v-0.187l-186.606-197.47-33.117 54.959c-9.537-22.421-28.050-40.187-51.032-48.975l80.969-73.677 253.159 205.454v126.728l-9.163-9.611-54.211-57.221zM-15.313 492.614v-538.929h538.2v318.216l-9.163-7.405-107.898-87.535 13.838-13.82-142.699-142.886-124.353 124.373c-55.912 0.729-100.979 46.358-100.979 102.457 0 56.661 45.834 102.457 102.474 102.457 45.067 0 83.233-28.966 97.071-69.358l25.787 25.601 60.233-60.213 185.671 195.525v51.518h-538.181zM207.515 301.128c-13.838 13.838-32.912 22.44-53.874 22.44-21.112 0-40.167-8.602-54.024-22.44s-22.272-32.912-22.272-54.061c0-20.925 8.433-39.999 22.272-53.836s32.912-22.44 54.024-22.44c20.963 0 40.035 8.602 53.874 22.44s22.422 32.912 22.422 53.837c0 21.149-8.583 40.224-22.422 54.062z" />
<glyph unicode="&#xe63d;" d="M512.016 480h-512.016v-511.997h156.019c0 0.373 0.089 0.692 0.089 1.065-0.178 4.012-0.603 7.988-1.171 11.965-0.533 4.777-1.1 9.535-2.042 14.257 0.232-0.106 0.445-0.231 0.657-0.319-0.729 17.843-0.142 39.235 4.42 58.64 4.9 20.683 32.844 139.028 32.844 139.028s-8.167 16.263-8.167 40.372c0 37.832 21.961 66.042 49.249 66.042 23.204 0 34.39-17.398 34.39-38.312 0-23.328-14.86-58.196-22.53-90.543-6.374-27.057 13.599-49.16 40.282-49.16 48.379 0 80.939 62.103 80.939 135.69 0 55.925-37.673 97.805-106.185 97.805-77.406 0-125.66-57.735-125.66-122.216 0-22.245 6.585-37.939 16.83-50.064 4.723-5.575 5.361-7.83 3.693-14.238-1.261-4.669-4.049-15.979-5.202-20.453-1.669-6.462-6.959-8.788-12.782-6.392-35.667 14.541-52.267 53.617-52.267 97.486 0 72.505 61.126 159.41 182.383 159.41 97.414 0 161.541-70.517 161.541-146.166 0-100.114-55.641-174.926-137.68-174.926-27.537 0-53.438 14.931-62.333 31.833 0 0-14.825-58.801-17.984-70.164-5.291-19.315-15.588-38.56-25.122-53.759-1.971-1.669-3.746-3.531-5.361-5.521-4.526-3.497-8.681-7.243-12.658-11.362h345.823v511.997l0.001 0.002z" />
<glyph unicode="&#xe63e;" d="M0 480v-510.451h1.53v-2.475h510.47v512.925l-512 0.001zM230.848 192.143c-20.035 20.124-46.902 31.246-75.247 31.281v43.433c41.388 0 78.877-16.814 106.049-44.072 27.223-27.241 44.055-64.715 44.090-106.102h-43.645v0.072c-0.072 28.522-11.157 55.372-31.246 75.389l-0.001-0.001zM216.063 147.071c-0.036-8.309-3.38-15.781-8.86-21.263h-0.037c-5.516-5.462-13.005-8.86-21.406-8.86-8.362 0-15.836 3.399-21.369 8.86-5.428 5.499-8.861 12.972-8.861 21.263s3.434 15.818 8.861 21.264c5.551 5.498 13.007 8.86 21.369 8.86 8.399 0 15.873-3.362 21.406-8.86 5.499-5.445 8.861-12.954 8.897-21.264v0zM155.672 300.822v43.434c62.668-0.036 119.499-25.551 160.725-66.795 41.209-41.208 66.706-98.076 66.742-160.762h-43.593c-0.035 101.475-82.507 184.053-183.874 184.123v0z" horiz-adv-x="511" />
<glyph unicode="&#xe63f;" d="M172 270.2c-17.6 9.6-25.6 25.6-28.8 44.8-3.2 12.8-1.601 25.6 4.8 38.4 9.6 19.2 28.8 24 44.8 12.8 20.8-14.4 27.2-35.2 28.8-57.6 0-9.6-1.6-19.2-6.399-27.2-9.601-16-27.201-20.8-43.201-11.2zM232.8 183.801c-14.399 9.6-28.8 12.799-48 12.799s-36.8-6.398-51.2-19.199c-19.2-19.2-17.6-44.801 4.8-59.2 17.6-12.801 36.8-16 57.6-11.2 16 3.2 28.8 8 40 19.2 17.6 17.6 16 41.6-3.2 57.6zM512 480v-512h-512v512h512zM260.001 196.6c-6.399 8-12.8 14.4-20.8 20.801-4.801 4.8-12.801 9.6-17.6 16-8 8-8 14.399 0 22.399 4.799 4.8 9.6 8 14.399 12.8 11.2 11.2 20.8 22.4 22.4 38.4 1.601 9.6 1.601 19.2 0 28.8 0 14.4-6.4 27.2-20.801 33.6-1.6 0-1.6 0-1.6 1.6 1.6 0 1.6 1.6 3.2 1.6 4.8 1.6 11.2 1.6 16 3.2s11.198 1.6 16 4.8c0 1.6 1.6 3.2 1.6 4.8s-1.599 1.6-3.2 1.6c-12.8 0-27.199 0-40 0-9.6 0-20.8 0-32 0.001-9.6 0-19.199-1.6-33.6-4.8-8-1.6-17.6-4.8-25.6-9.6-33.601-17.6-41.601-44.8-36.801-76.8 3.2-27.199 20.801-41.6 46.4-48 8-1.6 14.4-1.6 22.4-1.6 3.199 0 4.8-1.6 4.8-4.801 0-9.601-1.601-17.601 8-24 3.2-1.601 4.8-4.801 3.2-8 0-3.2-3.2-1.601-6.4-1.601-22.4 0-44.8-3.2-65.6-14.399-14.399-8-25.599-19.2-28.799-35.2-6.4-30.4 8-56 36.799-67.2 22.4-9.6 48-11.2 72-8 19.201 3.2 35.201 8 51.201 19.2 30.402 20.799 36.801 67.2 14.402 94.4zM428 329.4h-56v57.6h-16v-57.6h-56v-16h56v-56h16v56h56v16z" />
<glyph unicode="&#xf100;" d="M182.657 314.204c14.050 0 22.48-8.991 22.48-21.357 0-11.802-8.992-21.356-23.043-21.356v0c-13.489 0-22.481 9.555-22.481 21.356 0 12.364 8.991 21.357 23.044 21.357zM161.862 132.672v122.52h40.465v-122.521l-40.465 0.001zM302.366 258.001c26.977 0 46.647-17.422 46.647-55.078v-69.69h-40.467v65.194c0 16.298-6.183 27.539-20.796 27.539-11.239 0-17.984-7.308-20.795-14.614-1.124-2.81-1.124-6.182-1.124-10.116v-68.566h-40.466c0 0 0.562 111.28 0 122.521h40.466v-17.422c5.059 8.428 15.175 20.231 36.533 20.231l0.002 0.001zM0 480h512v-512h-512v512zM384.022 115.109l-0.018 217.782c0 10.679-8.431 19.109-19.671 19.109l-216.666-0.199c-10.677 0-19.67-8.429-19.67-19.109l-0.021-217.743c0-10.68 8.429-19.109 19.67-19.109l216.706 0.16c10.677 0 19.67 8.431 19.67 19.109z" />
<glyph unicode="&#xf101;" d="M153.994 284.98v52.267h8.991v-52.267h-8.991zM138.818 321.51c0 5.058 1.686 6.183 4.496 9.554l4.496 5.62v-52.268h-8.991v37.094h-0.001zM168.605 284.98v52.267h8.992v-52.267h-8.992zM183.78 284.98v52.267h8.992v-52.267h-8.992zM211.881 240.019c0 27.726 14.613 41.588 43.836 41.588s43.838-13.862 43.838-41.588c0-27.727-14.612-41.59-43.836-41.59-29.225 0-43.836 13.863-43.836 41.59h-0.002zM0 480h512v-512h-512v512zM384.5 266.5l-72.018-0.068c4.498-7.868 6.745-16.299 6.745-25.853 0-32.597-28.104-58.45-62.946-58.45-34.845 0-62.946 26.416-62.946 58.45 0 8.992 2.249 17.985 6.743 25.853l-72.078 0.068 0.147-142.961c0-20.231 4.495-27.539 25.853-27.539h201.423c23.043 0 28.664 5.059 28.664 26.978zM200.641 240.019c0-28.101 24.728-51.705 55.078-51.705s55.078 23.042 55.078 51.705-24.728 51.707-55.078 51.707-55.078-23.044-55.078-51.707zM384.25 278.25v48.333c0 22.482-6.182 25.291-26.978 25.291l-202.439 0.126c-19.67 0-26.977-6.182-26.977-31.473l0.081-44.54h78.888c11.239 13.489 29.225 22.482 49.456 22.482 20.234 0 38.22-6.729 49.457-20.219h78.512zM352.948 334.437c15.736 0 18.546-5.057 17.985-21.355v-6.183c0-12.927-2.811-19.67-15.738-19.67h-23.604c-12.927 0-16.862 4.496-16.862 23.604 0 17.422 4.497 23.605 17.423 23.605l20.796-0.001z" />
<glyph unicode="&#xf102;" d="M349.179 381.745c1.692-2.259 2.821-4.517 2.821-7.339v-268.25c0-2.822-1.129-5.645-2.821-7.34-2.26-1.692-4.518-2.82-7.339-2.82l-171.721-0.114c-2.822 0-5.646 1.128-7.339 2.821-1.693 2.259-2.821 4.518-2.821 7.339l0.041 268.333c0 2.259 1.129 5.081 2.822 6.773 2.258 1.693 4.516 2.821 7.338 2.821l171.68 0.031c0 0.002 5.080-0.561 7.339-2.255zM256 81.838c6.773 0 12.984-2.823 17.5-7.339 5.079-4.517 7.338-10.726 7.338-17.5 0-6.772-2.259-12.419-7.338-17.498-4.518-5.082-10.727-7.339-17.5-7.339s-12.417 2.257-17.499 7.339c-5.081 4.516-7.338 10.726-7.338 17.498 0 6.774 2.257 12.419 7.338 17.5 4.515 5.080 10.726 7.339 17.499 7.339zM0 480h512v-512h-512v512zM384.333 407.355c0 11.289-3.952 20.887-11.854 28.789-7.904 7.904-16.937 11.856-27.662 11.856h-177.302c-10.726 0-19.757-3.387-27.661-11.854s-11.854-17.5-11.854-28.791l0.151-366.378c0-11.288 3.952-20.888 11.854-28.791 7.903-7.901 16.935-11.854 27.661-11.854l177.167-0.334c10.726 0 19.758 3.952 27.66 11.854 7.903 8.469 11.855 17.5 11.855 28.791l-0.015 366.712z" />
<glyph unicode="&#xf103;" d="M0 480h512.001v-512h-512.001v512zM319.229 229.9l6.183 51.144h-46.087v25.291c0 12.928 1.124 20.232 20.232 20.232h25.291v50.582h-41.028c-48.896 0-66.318-24.728-66.318-66.319v-30.349h-30.349v-50.583h30.349v-147.81h60.698v147.81l41.029 0.002z" />
<glyph unicode="&#xf104;" d="M224.38 177.577l0.057 91.656 87.264-46.358-87.321-45.298zM0 480h512v-512.562h-512v512.562zM423.666 207.12v0 25.319c0 27.569-3.378 54.576-3.378 54.576s-3.376 23.068-13.502 33.196c-12.941 12.939-27.008 13.503-33.757 14.065-46.699 3.376-117.029 3.376-117.029 3.376v0c0 0-70.33 0-117.029-3.376-6.751-0.561-20.818-0.561-33.757-14.065-10.127-10.128-13.504-33.196-13.504-33.196s-3.376-27.569-3.376-54.576v-25.319c0-27.57 3.376-54.576 3.376-54.576s3.377-23.067 13.504-33.195c12.941-13.504 29.819-12.941 37.134-14.63 26.445-2.813 113.652-3.376 113.652-3.376s70.33 0 117.029 3.938c6.751 0.562 20.818 0.562 33.757 14.065 10.128 10.127 13.504 33.196 13.504 33.196s3.376 27.569 3.376 54.578v0z" />
<glyph unicode="&#xf105;" d="M2.351 480h509.649v-512h-509.649v512zM358.77 280.951c10.664 7.332 19.645 16.918 25.819 27.067-9.543-4.511-19.645-7.333-30.309-8.459 10.664 6.766 19.084 16.916 23.013 29.321-10.105-6.203-21.33-10.714-33.116-12.969-9.544 10.712-23.014 16.917-38.169 16.917-29.188 0-52.762-23.684-52.762-53.005 0-3.947 0-7.894 1.123-11.842-43.78 2.257-82.509 23.119-108.329 55.262-4.489-7.894-7.297-16.918-7.297-26.502 0-18.608 9.542-34.396 23.575-43.982-8.419 0.564-16.276 2.818-23.575 6.766v-0.564c0-25.938 17.961-46.801 42.096-51.876-4.49-1.128-9.542-1.691-14.032-1.691-3.368 0-6.735 0.563-10.104 1.126 6.735-20.863 26.382-36.086 49.394-36.651-17.962-14.098-40.413-22.557-65.111-22.557-3.93 0-8.419 0-12.347 0.565 23.575-15.226 51.078-23.683 80.825-23.683 96.541 0 149.303 80.069 149.303 149.991v6.765l0.003 0.001z" />
</font>
</defs>
</svg>
